<svg xmlns="http://www.w3.org/2000/svg" viewBox="151.849 162.011 310 295">
    <defs>
        <clipPath id="clip-1">
            <rect x="634.66667" y="307.73333" transform="scale(1.875,1.875)" width="96" height="96" id="clip-1" fill="none"></rect>
        </clipPath>
        <clipPath id="clip-2">
            <rect x="3483.253" y="1761.29002" transform="scale(0.35599,0.35599)" width="224.726" height="224.726" id="clip-2" fill="none"></rect>
        </clipPath>
    </defs>
    <g transform="matrix(1.050847, 0, 0, 1, -7.721046, 0)">
        <g clip-path="url(#clip-1)" id="Group 1" transform="matrix(1.63889, 0, 0, 2.622222, -1798.430298, -1449.34436)" fill="none" fill-rule="nonzero" stroke="none" stroke-width="1" stroke-linecap="butt" stroke-linejoin="miter" stroke-miterlimit="10" stroke-dasharray="" stroke-dashoffset="0" font-family="none" font-weight="none" font-size="none" text-anchor="none" style="mix-blend-mode: normal;">
            <path d="M 1201.25 614.5 L 1358.75 614.5 C 1364.963 614.5 1370 619.537 1370 625.75 L 1370 715.75 C 1370 721.963 1364.963 727 1358.75 727 L 1310 727 L 1280 727 L 1201.25 727 C 1195.037 727 1190 721.963 1190 715.75 L 1190 625.75 C 1190 619.537 1195.037 614.5 1201.25 614.5 Z" id="Path 1" style="fill: rgb(94, 130, 213);"></path>
        </g>
    </g>
    <g clip-path="url(#clip-2)" id="Group 1" transform="matrix(3.02511, 0, 0, 3.02511, -3565.297363, -1710.418457)" fill="none" fill-rule="nonzero" stroke="none" stroke-width="1" stroke-linecap="butt" stroke-linejoin="miter" stroke-miterlimit="10" stroke-dasharray="" stroke-dashoffset="0" font-family="none" font-weight="none" font-size="none" text-anchor="none" style="mix-blend-mode: normal;">
        <path d="M1319.60346,666.01143l-11.78751,-26.2841c-0.00036,-0.00071 -0.00071,-0.00142 -0.00107,-0.00214l-0.01531,-0.03418c-0.03952,-0.08793 -0.08651,-0.17052 -0.13848,-0.24919c-0.01388,-0.02136 -0.03062,-0.04058 -0.04521,-0.06087c-0.04664,-0.06479 -0.09683,-0.12566 -0.15094,-0.18298c-0.02136,-0.02243 -0.04308,-0.0445 -0.0655,-0.06586c-0.05981,-0.0566 -0.12282,-0.10893 -0.18974,-0.15664c-0.01744,-0.01282 -0.03346,-0.02706 -0.05162,-0.03916c-0.08401,-0.05553 -0.17301,-0.10324 -0.26557,-0.14418c-0.02634,-0.01175 -0.05375,-0.02029 -0.08081,-0.03062c-0.07262,-0.02777 -0.14631,-0.05091 -0.22249,-0.06906c-0.03133,-0.00748 -0.0623,-0.01495 -0.09398,-0.02065c-0.10431,-0.01922 -0.21039,-0.03204 -0.31897,-0.03204h-20.79973c-0.35599,-1.10748 -1.04768,-2.0626 -1.9526,-2.75429v-2.58519c0,-0.98289 -0.79706,-1.77995 -1.77995,-1.77995h-3.3228c-0.98289,0 -1.77995,0.79706 -1.77995,1.77995v2.62756c-0.87751,0.68813 -1.54748,1.62758 -1.896,2.71228h-20.85634c-0.10858,0 -0.21431,0.01317 -0.31897,0.03204c-0.03204,0.0057 -0.06265,0.01317 -0.09398,0.02065c-0.07618,0.01816 -0.15023,0.0413 -0.22249,0.06906c-0.02706,0.01032 -0.05447,0.01887 -0.08081,0.03062c-0.09256,0.04094 -0.18155,0.08829 -0.26557,0.14418c-0.01816,0.0121 -0.03418,0.02634 -0.05162,0.03916c-0.06693,0.0477 -0.12994,0.09968 -0.18974,0.15664c-0.02278,0.02136 -0.04414,0.04343 -0.06586,0.06586c-0.05447,0.05731 -0.10431,0.11854 -0.15094,0.18298c-0.01495,0.02065 -0.03133,0.03987 -0.04521,0.06087c-0.05197,0.07867 -0.09897,0.16126 -0.13848,0.24919l-0.01531,0.03418c-0.00036,0.00071 -0.00071,0.00142 -0.00107,0.00214l-11.82952,26.37702c-0.20007,0.288 -0.31932,0.63651 -0.31932,1.01386c0,7.60322 6.18567,13.78888 13.78888,13.78888c7.60322,0 13.78888,-6.18567 13.78888,-13.78888c0,-0.37735 -0.1189,-0.72551 -0.31932,-1.0135l-10.72061,-23.90574h18.15046c0.35848,1.03415 1.00781,1.93089 1.85257,2.59374v44.63427h-15.78385c-0.66606,0 -1.27658,0.37201 -1.58202,0.96402l-4.89627,9.49316c-0.28444,0.55178 -0.26094,1.21214 0.06194,1.74221c0.32324,0.53007 0.89887,0.85366 1.52007,0.85366h48.24329c0.00214,-0.00036 0.00427,0 0.00712,0c0.98289,0 1.77995,-0.79706 1.77995,-1.77995c0,-0.34887 -0.10039,-0.67424 -0.27376,-0.94871l-4.82828,-9.36038c-0.30544,-0.59201 -0.91596,-0.96402 -1.58202,-0.96402h-15.78349v-44.59191c0.87182,-0.66677 1.54286,-1.57917 1.90917,-2.6361h18.09422l-10.84877,24.19089c-0.00285,0.00641 -0.00427,0.01282 -0.00712,0.01922c-0.00819,0.01922 -0.01424,0.03916 -0.02207,0.05874c-0.03204,0.08152 -0.05767,0.16482 -0.07725,0.24884c-0.00498,0.02207 -0.01139,0.04343 -0.01566,0.0655c-0.01958,0.10217 -0.02955,0.20505 -0.03097,0.30829c0,0.00961 -0.00285,0.01816 -0.00285,0.02777c0,7.60322 6.18567,13.78888 13.78888,13.78888c7.60322,0 13.78888,-6.18567 13.78888,-13.78888c0,-0.42078 -0.15236,-0.8024 -0.39657,-1.10713zM1263.01329,665.33861h-18.44878l9.22439,-20.56941zM1282.08719,640.36028c0,1.14522 -0.93162,2.07648 -2.07648,2.07648c-1.14522,0 -2.07684,-0.93162 -2.07684,-2.07648c0,-1.14522 0.93162,-2.07648 2.07684,-2.07648c1.14486,-0.00036 2.07648,0.93127 2.07648,2.07648zM1296.95116,665.33861l9.22475,-20.56941l9.22439,20.56941z" id="CompoundPath 1" fill="#ffffff"></path>
    </g>
</svg>
